<svg xmlns="http://www.w3.org/2000/svg" xmlns:xlink="http://www.w3.org/1999/xlink" version="1.1" width="256" height="256" viewBox="0 0 256 256" xml:space="preserve">
<desc>Created with Fabric.js 1.7.22</desc>
<defs>
</defs>
<g transform="translate(128 128) scale(0.81 0.81)" style="">
	<g style="stroke: none; stroke-width: 0; stroke-dasharray: none; stroke-linecap: butt; stroke-linejoin: miter; stroke-miterlimit: 10; fill: none; fill-rule: nonzero; opacity: 1;" transform="translate(-157.05 -157.05000000000004) scale(3.49 3.49)" >
	<polygon points="8.06,36.44 8.06,43.49 8.06,48.52 8.06,89.28 81.94,89.28 81.94,48.52 81.94,43.49 81.94,36.44 " style="stroke: none; stroke-width: 1; stroke-dasharray: none; stroke-linecap: butt; stroke-linejoin: miter; stroke-miterlimit: 10; fill: rgb(226,228,231); fill-rule: nonzero; opacity: 1;" transform="  matrix(1 0 0 1 0 0) "/>
	<rect x="17.25" y="54.71" rx="0" ry="0" width="26.88" height="24.35" style="stroke: none; stroke-width: 1; stroke-dasharray: none; stroke-linecap: butt; stroke-linejoin: miter; stroke-miterlimit: 10; fill: rgb(0,198,200); fill-rule: nonzero; opacity: 1;" transform=" matrix(1 0 0 1 0 0) "/>
	<rect x="52.89" y="54.71" rx="0" ry="0" width="19.86" height="34.57" style="stroke: none; stroke-width: 1; stroke-dasharray: none; stroke-linecap: butt; stroke-linejoin: miter; stroke-miterlimit: 10; fill: rgb(0,198,200); fill-rule: nonzero; opacity: 1;" transform=" matrix(1 0 0 1 0 0) "/>
	<rect x="13.44" y="0.72" rx="0" ry="0" width="63.12" height="22.09" style="stroke: none; stroke-width: 1; stroke-dasharray: none; stroke-linecap: butt; stroke-linejoin: miter; stroke-miterlimit: 10; fill: rgb(240,184,58); fill-rule: nonzero; opacity: 1;" transform=" matrix(1 0 0 1 0 0) "/>
	<path d="M 53.599 35.278 c 0 4.749 -3.85 8.599 -8.599 8.599 s -8.599 -3.85 -8.599 -8.599 l 1.189 -12.462 h 14.819 L 53.599 35.278 z" style="stroke: none; stroke-width: 1; stroke-dasharray: none; stroke-linecap: butt; stroke-linejoin: miter; stroke-miterlimit: 10; fill: rgb(252,80,42); fill-rule: nonzero; opacity: 1;" transform=" matrix(1 0 0 1 0 0) " stroke-linecap="round" />
	<path d="M 19.204 35.278 c 0 4.749 3.85 8.599 8.599 8.599 s 8.599 -3.85 8.599 -8.599 l 1.189 -12.462 H 24.87 L 19.204 35.278 z" style="stroke: none; stroke-width: 1; stroke-dasharray: none; stroke-linecap: butt; stroke-linejoin: miter; stroke-miterlimit: 10; fill: rgb(230,13,40); fill-rule: nonzero; opacity: 1;" transform=" matrix(1 0 0 1 0 0) " stroke-linecap="round" />
	<path d="M 2.006 35.278 c 0 4.749 3.85 8.599 8.599 8.599 s 8.599 -3.85 8.599 -8.599 l 5.666 -12.462 H 13.438 L 2.006 35.278 z" style="stroke: none; stroke-width: 1; stroke-dasharray: none; stroke-linecap: butt; stroke-linejoin: miter; stroke-miterlimit: 10; fill: rgb(252,80,42); fill-rule: nonzero; opacity: 1;" transform=" matrix(1 0 0 1 0 0) " stroke-linecap="round" />
	<path d="M 70.796 35.278 c 0 4.749 -3.85 8.599 -8.599 8.599 s -8.599 -3.85 -8.599 -8.599 l -1.189 -12.462 H 65.13 L 70.796 35.278 z" style="stroke: none; stroke-width: 1; stroke-dasharray: none; stroke-linecap: butt; stroke-linejoin: miter; stroke-miterlimit: 10; fill: rgb(230,13,40); fill-rule: nonzero; opacity: 1;" transform=" matrix(1 0 0 1 0 0) " stroke-linecap="round" />
	<path d="M 87.994 35.278 c 0 4.749 -3.85 8.599 -8.599 8.599 c -4.749 0 -8.599 -3.85 -8.599 -8.599 L 65.13 22.816 h 11.432 L 87.994 35.278 z" style="stroke: none; stroke-width: 1; stroke-dasharray: none; stroke-linecap: butt; stroke-linejoin: miter; stroke-miterlimit: 10; fill: rgb(252,80,42); fill-rule: nonzero; opacity: 1;" transform=" matrix(1 0 0 1 0 0) " stroke-linecap="round" />
	<path d="M 81.983 89.717 H 8.017 c -0.556 0 -1.006 -0.45 -1.006 -1.006 V 43.777 c 0 -0.556 0.451 -1.006 1.006 -1.006 s 1.006 0.451 1.006 1.006 v 43.927 h 71.953 V 43.777 c 0 -0.556 0.45 -1.006 1.006 -1.006 c 0.556 0 1.006 0.451 1.006 1.006 V 88.71 C 82.989 89.267 82.539 89.717 81.983 89.717 z" style="stroke: none; stroke-width: 1; stroke-dasharray: none; stroke-linecap: butt; stroke-linejoin: miter; stroke-miterlimit: 10; fill: rgb(0,0,0); fill-rule: nonzero; opacity: 1;" transform=" matrix(1 0 0 1 0 0) " stroke-linecap="round" />
	<path d="M 45 45.166 c -5.302 0 -9.616 -4.314 -9.616 -9.616 l 1.195 -12.573 c 0.05 -0.516 0.483 -0.911 1.002 -0.911 h 14.838 c 0.519 0 0.952 0.394 1.001 0.911 l 1.191 12.477 c 0.003 0.032 0.005 0.064 0.005 0.096 C 54.616 40.853 50.302 45.166 45 45.166 z M 38.496 24.08 l -1.104 11.567 c 0.004 4.097 3.415 7.507 7.607 7.507 c 4.178 0 7.579 -3.386 7.604 -7.557 l -1.1 -11.517 H 38.496 z" style="stroke: none; stroke-width: 1; stroke-dasharray: none; stroke-linecap: butt; stroke-linejoin: miter; stroke-miterlimit: 10; fill: rgb(0,0,0); fill-rule: nonzero; opacity: 1;" transform=" matrix(1 0 0 1 0 0) " stroke-linecap="round" />
	<path d="M 27.781 45.166 c -5.302 0 -9.616 -4.314 -9.616 -9.616 c 0 -0.143 0.031 -0.285 0.09 -0.417 l 5.673 -12.477 c 0.163 -0.359 0.521 -0.59 0.916 -0.59 h 12.736 c 0.284 0 0.554 0.119 0.744 0.329 c 0.191 0.21 0.285 0.49 0.257 0.773 l -1.191 12.477 C 37.397 40.853 33.083 45.166 27.781 45.166 z M 20.181 35.762 c 0.113 4.095 3.478 7.391 7.6 7.391 c 4.192 0 7.603 -3.411 7.603 -7.603 l 1.09 -11.471 H 25.493 L 20.181 35.762 z" style="stroke: none; stroke-width: 1; stroke-dasharray: none; stroke-linecap: butt; stroke-linejoin: miter; stroke-miterlimit: 10; fill: rgb(0,0,0); fill-rule: nonzero; opacity: 1;" transform=" matrix(1 0 0 1 0 0) " stroke-linecap="round" />
	<path d="M 10.562 45.166 c -5.302 0 -9.616 -4.314 -9.616 -9.616 c 0 -0.252 0.094 -0.495 0.265 -0.68 l 11.446 -12.477 c 0.191 -0.208 0.459 -0.326 0.741 -0.326 h 11.446 c 0.342 0 0.661 0.174 0.846 0.461 c 0.185 0.288 0.212 0.65 0.07 0.962 l -5.585 12.284 C 20.056 40.974 15.79 45.166 10.562 45.166 z M 2.968 35.932 c 0.199 4.016 3.53 7.222 7.594 7.222 c 4.192 0 7.604 -3.411 7.604 -7.603 c 0 -0.143 0.031 -0.285 0.09 -0.417 l 5.026 -11.054 h -9.441 L 2.968 35.932 z" style="stroke: none; stroke-width: 1; stroke-dasharray: none; stroke-linecap: butt; stroke-linejoin: miter; stroke-miterlimit: 10; fill: rgb(0,0,0); fill-rule: nonzero; opacity: 1;" transform=" matrix(1 0 0 1 0 0) " stroke-linecap="round" />
	<path d="M 62.219 45.166 c -5.302 0 -9.615 -4.314 -9.615 -9.616 l -1.186 -12.382 c -0.028 -0.283 0.066 -0.563 0.256 -0.773 c 0.191 -0.21 0.461 -0.329 0.745 -0.329 h 12.736 c 0.395 0 0.753 0.23 0.916 0.59 l 5.673 12.477 c 0.06 0.131 0.09 0.273 0.09 0.417 C 71.835 40.853 67.521 45.166 62.219 45.166 z M 53.525 24.08 l 1.086 11.375 c 0.005 4.288 3.415 7.699 7.607 7.699 c 4.122 0 7.488 -3.297 7.601 -7.391 L 64.508 24.08 H 53.525 z" style="stroke: none; stroke-width: 1; stroke-dasharray: none; stroke-linecap: butt; stroke-linejoin: miter; stroke-miterlimit: 10; fill: rgb(0,0,0); fill-rule: nonzero; opacity: 1;" transform=" matrix(1 0 0 1 0 0) " stroke-linecap="round" />
	<path d="M 79.437 45.166 c -5.227 0 -9.493 -4.193 -9.612 -9.392 L 64.239 23.49 c -0.142 -0.312 -0.115 -0.674 0.07 -0.962 c 0.185 -0.287 0.504 -0.461 0.846 -0.461 h 11.446 c 0.282 0 0.551 0.118 0.742 0.326 l 11.446 12.477 c 0.17 0.185 0.264 0.428 0.264 0.68 C 89.054 40.853 84.739 45.166 79.437 45.166 z M 66.718 24.08 l 5.027 11.054 c 0.06 0.131 0.09 0.273 0.09 0.417 c 0 4.192 3.41 7.603 7.603 7.603 c 4.065 0 7.394 -3.206 7.594 -7.222 L 76.159 24.08 H 66.718 z" style="stroke: none; stroke-width: 1; stroke-dasharray: none; stroke-linecap: butt; stroke-linejoin: miter; stroke-miterlimit: 10; fill: rgb(0,0,0); fill-rule: nonzero; opacity: 1;" transform=" matrix(1 0 0 1 0 0) " stroke-linecap="round" />
	<path d="M 44.134 80.482 H 17.217 c -0.556 0 -1.006 -0.45 -1.006 -1.006 V 55.006 c 0 -0.556 0.451 -1.006 1.006 -1.006 h 26.917 c 0.556 0 1.006 0.45 1.006 1.006 v 24.469 C 45.14 80.032 44.689 80.482 44.134 80.482 z M 18.223 78.469 h 24.904 V 56.012 H 18.223 V 78.469 z" style="stroke: none; stroke-width: 1; stroke-dasharray: none; stroke-linecap: butt; stroke-linejoin: miter; stroke-miterlimit: 10; fill: rgb(0,0,0); fill-rule: nonzero; opacity: 1;" transform=" matrix(1 0 0 1 0 0) " stroke-linecap="round" />
	<path d="M 72.783 89.717 H 52.901 c -0.556 0 -1.006 -0.45 -1.006 -1.006 V 55.006 c 0 -0.556 0.45 -1.006 1.006 -1.006 h 19.882 c 0.556 0 1.006 0.45 1.006 1.006 V 88.71 C 73.79 89.267 73.339 89.717 72.783 89.717 z M 53.908 87.704 h 17.869 V 56.012 H 53.908 V 87.704 z" style="stroke: none; stroke-width: 1; stroke-dasharray: none; stroke-linecap: butt; stroke-linejoin: miter; stroke-miterlimit: 10; fill: rgb(0,0,0); fill-rule: nonzero; opacity: 1;" transform=" matrix(1 0 0 1 0 0) " stroke-linecap="round" />
	<path d="M 59.393 72.865 h -6.492 c -0.556 0 -1.006 -0.45 -1.006 -1.006 s 0.45 -1.006 1.006 -1.006 h 6.492 c 0.556 0 1.006 0.45 1.006 1.006 S 59.95 72.865 59.393 72.865 z" style="stroke: none; stroke-width: 1; stroke-dasharray: none; stroke-linecap: butt; stroke-linejoin: miter; stroke-miterlimit: 10; fill: rgb(0,0,0); fill-rule: nonzero; opacity: 1;" transform=" matrix(1 0 0 1 0 0) " stroke-linecap="round" />
	<path d="M 22.838 64.794 c -0.257 0 -0.515 -0.098 -0.712 -0.295 c -0.393 -0.393 -0.393 -1.03 0 -1.423 l 3.161 -3.161 c 0.393 -0.393 1.03 -0.393 1.423 0 c 0.393 0.393 0.393 1.03 0 1.423 L 23.549 64.5 C 23.353 64.696 23.095 64.794 22.838 64.794 z" style="stroke: none; stroke-width: 1; stroke-dasharray: none; stroke-linecap: butt; stroke-linejoin: miter; stroke-miterlimit: 10; fill: rgb(0,0,0); fill-rule: nonzero; opacity: 1;" transform=" matrix(1 0 0 1 0 0) " stroke-linecap="round" />
	<path d="M 24.029 71.416 c -0.257 0 -0.515 -0.098 -0.712 -0.295 c -0.393 -0.393 -0.393 -1.03 0 -1.423 l 8.593 -8.592 c 0.393 -0.393 1.03 -0.393 1.423 0 c 0.393 0.393 0.393 1.03 0 1.423 l -8.593 8.592 C 24.544 71.318 24.286 71.416 24.029 71.416 z" style="stroke: none; stroke-width: 1; stroke-dasharray: none; stroke-linecap: butt; stroke-linejoin: miter; stroke-miterlimit: 10; fill: rgb(0,0,0); fill-rule: nonzero; opacity: 1;" transform=" matrix(1 0 0 1 0 0) " stroke-linecap="round" />
	<path d="M 88.047 36.557 H 1.953 c -0.556 0 -1.006 -0.451 -1.006 -1.006 s 0.451 -1.006 1.006 -1.006 h 86.095 c 0.556 0 1.006 0.451 1.006 1.006 S 88.604 36.557 88.047 36.557 z" style="stroke: none; stroke-width: 1; stroke-dasharray: none; stroke-linecap: butt; stroke-linejoin: miter; stroke-miterlimit: 10; fill: rgb(0,0,0); fill-rule: nonzero; opacity: 1;" transform=" matrix(1 0 0 1 0 0) " stroke-linecap="round" />
	<path d="M 76.601 24.08 H 13.399 c -0.556 0 -1.006 -0.451 -1.006 -1.006 V 0.723 c 0 -0.556 0.451 -1.006 1.006 -1.006 h 63.202 c 0.556 0 1.006 0.451 1.006 1.006 v 22.35 C 77.608 23.629 77.157 24.08 76.601 24.08 z M 14.405 22.067 h 61.19 V 1.729 h -61.19 V 22.067 z" style="stroke: none; stroke-width: 1; stroke-dasharray: none; stroke-linecap: butt; stroke-linejoin: miter; stroke-miterlimit: 10; fill: rgb(0,0,0); fill-rule: nonzero; opacity: 1;" transform=" matrix(1 0 0 1 0 0) " stroke-linecap="round" />
	<path d="M 42.092 12.899 h -6.935 c -0.556 0 -1.006 -0.451 -1.006 -1.006 c 0 -0.556 0.451 -1.006 1.006 -1.006 h 6.935 c 0.556 0 1.006 0.451 1.006 1.006 C 43.098 12.448 42.647 12.899 42.092 12.899 z" style="stroke: none; stroke-width: 1; stroke-dasharray: none; stroke-linecap: butt; stroke-linejoin: miter; stroke-miterlimit: 10; fill: rgb(0,0,0); fill-rule: nonzero; opacity: 1;" transform=" matrix(1 0 0 1 0 0) " stroke-linecap="round" />
	<path d="M 27.672 18.749 H 23.94 c -0.556 0 -1.006 -0.451 -1.006 -1.006 c 0 -0.556 0.451 -1.006 1.006 -1.006 h 3.732 c 0.54 0 0.98 -0.44 0.98 -0.98 V 14.01 c 0 -0.54 -0.44 -0.98 -0.98 -0.98 h -2.078 c -1.65 0 -2.992 -1.342 -2.992 -2.992 V 8.292 c 0 -1.65 1.342 -2.992 2.992 -2.992 h 2.678 c 0.556 0 1.006 0.451 1.006 1.006 s -0.451 1.006 -1.006 1.006 h -2.678 c -0.54 0 -0.98 0.44 -0.98 0.98 v 1.746 c 0 0.54 0.44 0.98 0.98 0.98 h 2.078 c 1.65 0 2.992 1.342 2.992 2.992 v 1.746 C 30.665 17.406 29.322 18.749 27.672 18.749 z" style="stroke: none; stroke-width: 1; stroke-dasharray: none; stroke-linecap: butt; stroke-linejoin: miter; stroke-miterlimit: 10; fill: rgb(0,0,0); fill-rule: nonzero; opacity: 1;" transform=" matrix(1 0 0 1 0 0) " stroke-linecap="round" />
	<path d="M 35.157 18.749 c -0.556 0 -1.006 -0.451 -1.006 -1.006 V 6.306 c 0 -0.556 0.451 -1.006 1.006 -1.006 s 1.006 0.451 1.006 1.006 v 11.436 C 36.163 18.298 35.713 18.749 35.157 18.749 z" style="stroke: none; stroke-width: 1; stroke-dasharray: none; stroke-linecap: butt; stroke-linejoin: miter; stroke-miterlimit: 10; fill: rgb(0,0,0); fill-rule: nonzero; opacity: 1;" transform=" matrix(1 0 0 1 0 0) " stroke-linecap="round" />
	<path d="M 42.092 18.749 c -0.556 0 -1.006 -0.451 -1.006 -1.006 V 6.306 c 0 -0.556 0.451 -1.006 1.006 -1.006 s 1.006 0.451 1.006 1.006 v 11.436 C 43.098 18.298 42.647 18.749 42.092 18.749 z" style="stroke: none; stroke-width: 1; stroke-dasharray: none; stroke-linecap: butt; stroke-linejoin: miter; stroke-miterlimit: 10; fill: rgb(0,0,0); fill-rule: nonzero; opacity: 1;" transform=" matrix(1 0 0 1 0 0) " stroke-linecap="round" />
	<path d="M 52.539 18.749 h -2.214 c -1.945 0 -3.527 -1.582 -3.527 -3.527 V 8.574 c 0 -1.944 1.582 -3.527 3.527 -3.527 h 2.214 c 1.944 0 3.526 1.582 3.526 3.527 v 6.648 C 56.065 17.166 54.483 18.749 52.539 18.749 z M 50.325 7.06 c -0.835 0 -1.514 0.679 -1.514 1.514 v 6.648 c 0 0.835 0.679 1.514 1.514 1.514 h 2.214 c 0.834 0 1.513 -0.679 1.513 -1.514 V 8.574 c 0 -0.835 -0.679 -1.514 -1.513 -1.514 H 50.325 z" style="stroke: none; stroke-width: 1; stroke-dasharray: none; stroke-linecap: butt; stroke-linejoin: miter; stroke-miterlimit: 10; fill: rgb(0,0,0); fill-rule: nonzero; opacity: 1;" transform=" matrix(1 0 0 1 0 0) " stroke-linecap="round" />
	<path d="M 64.164 13.727 h -4.186 c -0.556 0 -1.006 -0.451 -1.006 -1.006 V 6.306 c 0 -0.556 0.45 -1.006 1.006 -1.006 h 4.186 c 1.784 0 3.235 1.451 3.235 3.235 v 1.958 C 67.399 12.276 65.947 13.727 64.164 13.727 z M 60.984 11.714 h 3.179 c 0.674 0 1.223 -0.548 1.223 -1.222 V 8.534 c 0 -0.674 -0.548 -1.222 -1.223 -1.222 h -3.179 V 11.714 z" style="stroke: none; stroke-width: 1; stroke-dasharray: none; stroke-linecap: butt; stroke-linejoin: miter; stroke-miterlimit: 10; fill: rgb(0,0,0); fill-rule: nonzero; opacity: 1;" transform=" matrix(1 0 0 1 0 0) " stroke-linecap="round" />
	<path d="M 59.978 18.749 c -0.556 0 -1.006 -0.451 -1.006 -1.006 v -5.022 c 0 -0.556 0.45 -1.006 1.006 -1.006 c 0.556 0 1.006 0.451 1.006 1.006 v 5.022 C 60.984 18.298 60.534 18.749 59.978 18.749 z" style="stroke: none; stroke-width: 1; stroke-dasharray: none; stroke-linecap: butt; stroke-linejoin: miter; stroke-miterlimit: 10; fill: rgb(0,0,0); fill-rule: nonzero; opacity: 1;" transform=" matrix(1 0 0 1 0 0) " stroke-linecap="round" />
</g>
</g>
</svg>